<mxfile host="app.diagrams.net" modified="2023-12-21T16:55:12.056Z" agent="Mozilla/5.0 (Windows NT 10.0; Win64; x64; rv:120.0) Gecko/20100101 Firefox/120.0" etag="VS6lrCEv3Nlg_Asw1aF4" version="22.1.11" type="github">
  <diagram name="Page-1" id="nDaKL3ebdBdOYoQSPej4">
    <mxGraphModel dx="1050" dy="558" grid="1" gridSize="10" guides="1" tooltips="1" connect="1" arrows="1" fold="1" page="1" pageScale="1" pageWidth="850" pageHeight="1100" math="0" shadow="0">
      <root>
        <mxCell id="0" />
        <mxCell id="1" parent="0" />
      </root>
    </mxGraphModel>
  </diagram>
</mxfile>
